<?xml version="1.0" encoding="iso-8859-1"?>
<!-- Generator: Adobe Illustrator 16.0.0, SVG Export Plug-In . SVG Version: 6.00 Build 0)  -->
<!DOCTYPE svg PUBLIC "-//W3C//DTD SVG 1.1//EN" "http://www.w3.org/Graphics/SVG/1.1/DTD/svg11.dtd">
<svg version="1.1" id="Capa_1" xmlns="http://www.w3.org/2000/svg" xmlns:xlink="http://www.w3.org/1999/xlink" x="0px" y="0px"
	 width="381.404px" height="381.404px" viewBox="0 0 381.404 381.404" style="enable-background:new 0 0 381.404 381.404;"
	 xml:space="preserve">
<g>
	<path d="M237.236,134.907l-63.656-25.152v266.549c0,2.818-2.29,5.097-5.102,5.101H117.46c-2.815-0.004-5.099-2.282-5.099-5.093
		V109.755l-63.659,25.152c-2.136,0.829-4.569,0.145-5.945-1.675c-1.39-1.838-1.378-4.361,0.027-6.18L138.919,1.998
		c0.97-1.256,2.467-1.992,4.052-1.998c1.576,0,3.075,0.742,4.041,1.998l96.14,125.059c0.705,0.915,1.056,2.017,1.056,3.103
		c0,1.064-0.34,2.159-1.018,3.083C241.8,135.057,239.371,135.741,237.236,134.907z M339.683,374.169h-21.898l-12.367-29.729h-37.231
		l-12.021,29.729h-21.407l41.452-99.562h21.853L339.683,374.169z M300.219,329.863l-9.913-23.781
		c-1.408-3.371-2.567-6.578-3.603-9.675c-1.136,3.425-2.26,6.528-3.404,9.478l-9.937,23.973h26.856V329.863z M326.082,156.144
		h-83.719v15.292h56.287l-61.786,73.765v10.516h90.071v-15.288h-62.31l61.442-73.47v-10.815H326.082z"/>
</g>
<g>
</g>
<g>
</g>
<g>
</g>
<g>
</g>
<g>
</g>
<g>
</g>
<g>
</g>
<g>
</g>
<g>
</g>
<g>
</g>
<g>
</g>
<g>
</g>
<g>
</g>
<g>
</g>
<g>
</g>
</svg>
